<?xml version="1.0" encoding="utf-8"?>
<!-- Generator: Adobe Illustrator 16.0.0, SVG Export Plug-In . SVG Version: 6.00 Build 0)  -->
<!DOCTYPE svg PUBLIC "-//W3C//DTD SVG 1.1//EN" "http://www.w3.org/Graphics/SVG/1.1/DTD/svg11.dtd">
<svg version="1.1" id="圖層_1" xmlns="http://www.w3.org/2000/svg" xmlns:xlink="http://www.w3.org/1999/xlink" x="0px" y="0px"
	 width="1140px" height="196.667px" viewBox="0 0 1140 196.667" enable-background="new 0 0 1140 196.667" xml:space="preserve">
<g>
	<path fill="#FFFFFF" d="M46.695,99.893V77.428h3.049l11.8,17.638V77.428h2.85v22.465h-3.049l-11.8-17.653v17.653H46.695z"/>
	<path fill="#FFFFFF" d="M69.895,99.893V77.428h2.973v22.465H69.895z"/>
	<path fill="#FFFFFF" d="M78.108,99.893V77.428h7.738c1.747,0,3.08,0.107,4,0.322c1.287,0.296,2.385,0.832,3.294,1.608
		c1.186,1.001,2.071,2.281,2.659,3.839c0.587,1.559,0.881,3.338,0.881,5.34c0,1.707-0.199,3.219-0.598,4.536
		s-0.909,2.408-1.532,3.271s-1.306,1.542-2.046,2.038s-1.635,0.871-2.682,1.126c-1.047,0.256-2.25,0.384-3.608,0.384H78.108z
		 M81.081,97.242h4.797c1.48,0,2.643-0.138,3.485-0.413c0.843-0.276,1.515-0.664,2.016-1.166c0.705-0.704,1.254-1.651,1.647-2.842
		c0.393-1.189,0.59-2.633,0.59-4.329c0-2.349-0.386-4.155-1.157-5.417s-1.709-2.106-2.812-2.535
		c-0.797-0.307-2.079-0.461-3.847-0.461h-4.72V97.242z"/>
	<path fill="#FFFFFF" d="M104.266,75.866l2.544,0.889c-0.961,2.982-2.023,5.619-3.188,7.906c0.837-0.122,1.654-0.234,2.451-0.337
		c0.694-1.43,1.38-2.982,2.054-4.658l2.605,1.011c-2.146,4.885-4.342,8.857-6.59,11.922c1.39-0.143,2.585-0.326,3.586-0.551
		c-0.164-0.961-0.348-1.9-0.552-2.82l2.268-0.705c0.491,1.84,0.92,3.943,1.288,6.314l-2.514,0.643
		c-0.062-0.367-0.112-0.715-0.153-1.041c-1.921,0.449-4.525,0.797-7.814,1.041l-0.797-2.696c0.653,0,1.246-0.011,1.777-0.03
		c1.185-1.614,2.38-3.576,3.586-5.885c-1.532,0.266-3.198,0.521-4.996,0.766l-0.612-2.574c0.51-0.041,1.021-0.081,1.532-0.122
		C102.069,82.24,103.243,79.216,104.266,75.866z M100.465,96.583l2.299,0.307c-0.144,3.023-0.409,5.578-0.797,7.662l-2.636-0.828
		C99.903,101.497,100.281,99.116,100.465,96.583z M105.859,96.459c0.408,1.676,0.684,3.943,0.827,6.805l-2.513,0.307
		c-0.062-2.943-0.205-5.23-0.43-6.865L105.859,96.459z M109.046,95.969c0.675,2.207,1.195,4.209,1.563,6.008l-2.329,0.857
		c-0.327-2.145-0.735-4.249-1.226-6.313L109.046,95.969z M121.305,104.551l-0.644-2.82l3.249,0.123
		c0.613-0.041,0.919-0.46,0.919-1.256v-7.142h-6.681v3.341c0,0.633,0.348,0.949,1.042,0.949h4.413v2.33h-5.026
		c-0.939,0-1.675-0.184-2.206-0.552s-0.797-0.981-0.797-1.839v-4.229h-1.9v11.095h-2.696V77.153h16.549v24.271
		c0,1.063-0.245,1.859-0.735,2.391c-0.409,0.49-1.012,0.736-1.809,0.736H121.305z M113.674,85.059h2.237
		c-0.429-1.45-0.93-2.789-1.502-4.014l2.636-0.369c0.511,1.287,0.981,2.749,1.41,4.383h1.594c0.49-1.389,0.848-2.85,1.072-4.383
		l2.605,0.338c-0.266,1.451-0.644,2.799-1.134,4.045h2.236v-5.577h-11.155V85.059z M113.674,91.127h4.168v-3.616h-4.168V91.127z
		 M120.539,87.511v3.616h4.29v-3.616H120.539z"/>
	<path fill="#FFFFFF" d="M132.369,77.213h9.93v5.303c1.368-0.858,2.522-1.768,3.463-2.729c0.858-0.837,1.645-2.063,2.359-3.678
		l2.942,0.369c-0.286,0.796-0.623,1.531-1.011,2.206h8.336v2.298c-1.614,2.473-3.279,4.455-4.996,5.945
		c1.717,1.063,3.964,2.064,6.742,3.004l-1.256,2.605c-3.27-1.349-5.854-2.615-7.754-3.801c-2.084,1.451-4.884,2.718-8.397,3.801
		l-0.367-0.674v2.451h-3.371v5.332c1.307-0.367,2.554-0.766,3.738-1.195v2.729c-3.269,1.184-7.039,2.268-11.309,3.248l-0.827-2.697
		c0.531-0.122,1.042-0.244,1.532-0.367V89.35h2.329v11.523c0.674-0.164,1.328-0.327,1.961-0.49V87.266h-4.045V77.213z
		 M139.725,84.815v-5.149h-4.781v5.149H139.725z M142.115,91.495l-0.858-1.563c3.044-0.816,5.567-1.818,7.569-3.004
		c-1.001-0.877-2.002-1.991-3.003-3.34c-0.716,0.552-1.472,1.083-2.269,1.594l-1.256-1.625v3.709h-3.31v4.229H142.115z
		 M157.745,92.598v12.197h-2.82v-1.287h-7.846v1.287h-2.819V92.598H157.745z M147.079,100.69h7.846v-5.271h-7.846V100.69z
		 M147.662,81.872c1.205,1.472,2.339,2.637,3.401,3.494c1.205-1.021,2.452-2.35,3.739-3.984h-6.682
		C147.958,81.586,147.805,81.75,147.662,81.872z"/>
	<path fill="#FFFFFF" d="M164.18,81.259h2.851v-4.903h2.666v4.903h4.168v9.439h1.839V77.03h14.466v2.574h-11.523v1.9h10.665v2.451
		h-10.665v2.023h10.665v2.329h-10.665v2.391h12.381v2.452h-7.692c0.47,1.531,1.063,2.83,1.777,3.892
		c1.206-0.694,2.35-1.706,3.433-3.034l2.115,2.084c-1.145,1.268-2.401,2.278-3.77,3.034c1.287,1.205,2.87,2.237,4.75,3.095
		l-1.655,2.697c-2.922-1.635-5.098-3.443-6.527-5.424c-1.349-1.777-2.319-3.893-2.912-6.344H178.4v7.324
		c1.389-0.368,2.737-0.776,4.045-1.227v2.697c-2.574,0.92-5.598,1.828-9.071,2.728l-0.735-3.064c0.96-0.144,1.9-0.307,2.819-0.49
		v-7.968h-1.594v3.033c0,0.736-0.194,1.369-0.582,1.9c-0.368,0.471-0.93,0.705-1.686,0.705h-1.41l-0.49-1.961v7.967h-2.666v-20.84
		h-1.624V99.28h-2.452V81.259H164.18z M169.696,83.956V96l1.104,0.092c0.408,0,0.613-0.285,0.613-0.857V83.956H169.696z"/>
	<path fill="#FFFFFF" d="M193.724,87.573h11.646v2.574h-5.854l-0.828,3.188h5.455c-0.041,5.762-0.593,9.061-1.654,9.898
		c-0.552,0.715-2.452,1.072-5.7,1.072l-0.613-2.941c0.919,0.163,1.665,0.245,2.237,0.245c0.878,0,1.542-0.185,1.992-0.552
		c0.408-0.389,0.674-2.104,0.797-5.148h-6.16l1.747-5.762h-3.065V87.573z M195.011,76.907h9.93v8.827h-9.93V76.907z M202.366,83.405
		v-4.168h-4.781v4.168H202.366z M211.928,75.988h2.82v1.778h5.945v2.328h-5.945v1.9h7.661c-0.225,1.982-0.593,3.943-1.103,5.885
		l-2.697-0.767c0.307-0.735,0.571-1.624,0.797-2.667h-4.658v2.33l3.616-0.184l0.367,2.328l-3.983,0.215v0.645
		c0,0.653,0.347,0.98,1.042,0.98h5.271v2.328h-5.884c-0.94,0-1.676-0.184-2.207-0.551c-0.531-0.389-0.796-1.001-0.796-1.839v-1.41
		l-3.004,0.185c-0.021,2.288-0.215,4.678-0.582,7.171c-0.49,2.759-1.308,5.476-2.452,8.151l-2.359-2.113
		c1.082-2.166,1.828-4.444,2.237-6.835c0.306-2.472,0.459-4.761,0.459-6.864v-6.988h5.455V75.988z M210.886,94.375h2.636
		c-0.103,2.841-0.327,4.771-0.674,5.793c-0.449,1.635-1.42,3.218-2.911,4.75l-2.237-1.777c1.226-1.104,2.032-2.196,2.421-3.279
		C210.528,98.677,210.784,96.848,210.886,94.375z M212.174,86.928v-2.482h-3.004v2.637L212.174,86.928z M219.13,101.977
		c0.327,0,0.563-0.144,0.705-0.43c0.163-0.307,0.276-1.675,0.337-4.106l2.482,0.797c-0.204,2.982-0.531,4.739-0.98,5.271
		c-0.409,0.531-1.145,0.797-2.206,0.797h-1.625c-0.797,0-1.42-0.225-1.869-0.674c-0.49-0.449-0.735-1.053-0.735-1.809v-7.447h2.574
		v6.713c0,0.592,0.337,0.889,1.012,0.889H219.13z"/>
	<path fill="#FFFFFF" d="M228.049,77.213h8.459v23.936c0,0.98-0.226,1.758-0.675,2.33c-0.47,0.551-1.226,0.826-2.268,0.826h-2.207
		l-0.735-2.818l2.054,0.122c0.592,0,0.889-0.327,0.889-0.981v-5.945h-4.199c-0.041,0.92-0.112,1.85-0.214,2.789
		c-0.327,2.514-0.858,4.996-1.594,7.447l-2.574-2.299c0.633-1.92,1.072-3.942,1.317-6.067c0.185-2.187,0.276-4.219,0.276-6.099
		v-13.24H228.049z M229.489,91.864h4.076v-4.904h-4.046v3.494C229.52,90.944,229.51,91.415,229.489,91.864z M229.52,84.14h4.046
		v-4.229h-4.046V84.14z M245.579,86.163l-0.613-2.941c0.92,0.163,1.665,0.244,2.237,0.244c0.756,0,1.318-0.122,1.686-0.367
		c0.348-0.266,0.572-1.43,0.675-3.494h-8.091v7.907h11.032v2.513c-0.552,3.515-1.502,6.518-2.85,9.011
		c1.226,1.062,2.809,2.146,4.75,3.249l-1.563,2.758c-2.002-1.145-3.667-2.35-4.995-3.617c-1.164,1.246-2.646,2.33-4.443,3.249
		l-1.625-2.513c1.676-0.838,3.045-1.809,4.107-2.912c-1.513-2.063-2.708-4.995-3.586-8.795h-0.827v14.465h-3.065V76.785h13.976
		c-0.041,4.925-0.552,7.743-1.532,8.458C250.339,85.856,248.582,86.163,245.579,86.163z M244.844,90.454
		c0.775,2.922,1.705,5.077,2.788,6.467l0.031-0.063c0.919-1.756,1.604-3.892,2.053-6.404H244.844z"/>
	<path fill="#FFFFFF" d="M257.193,77.275h12.014v2.421c-1.246,2.044-2.707,3.883-4.383,5.518c0.327,0.326,0.613,0.643,0.858,0.949
		h4.015v2.514c-0.613,2.328-1.358,4.393-2.237,6.19l-2.022-1.809c0.449-0.878,0.98-2.278,1.594-4.198h-1.839v12.259
		c0,1.083-0.226,1.839-0.674,2.268c-0.43,0.449-1.216,0.675-2.36,0.675h-2.452l-0.644-2.942c0.939,0.143,1.706,0.214,2.299,0.214
		c0.756,0,1.134-0.234,1.134-0.705v-10.42c-0.552,2.188-1.053,3.842-1.501,4.965c-0.552,1.615-1.502,3.516-2.851,5.701l-2.146-1.9
		c1.165-1.818,2.094-3.605,2.789-5.363c0.511-1.369,0.96-2.952,1.349-4.75h-3.647v-2.697h5.64c-1.002-1.246-2.146-2.543-3.433-3.893
		l1.992-1.256c0.878,0.838,1.665,1.614,2.359,2.329c0.899-0.899,1.88-2.063,2.942-3.493h-8.796V77.275z M277.175,104.551
		l-0.704-2.82c1.001,0.041,1.705,0.062,2.114,0.062c1.042,0,1.686-0.133,1.931-0.398c0.43-0.531,0.675-2.421,0.735-5.669h-3.8
		c-0.471,1.573-1.072,2.941-1.809,4.105c-1.308,2.064-3.616,3.678-6.926,4.843l-1.195-2.728c2.84-0.939,4.832-2.258,5.977-3.953
		c0.429-0.593,0.797-1.349,1.103-2.268h-5.363v-2.452h5.946c0.143-0.858,0.245-1.798,0.306-2.819l2.82,0.275
		c-0.062,0.92-0.174,1.768-0.338,2.544h6.222c-0.164,4.761-0.389,7.682-0.674,8.765c-0.144,0.858-0.583,1.521-1.318,1.992
		C281.752,104.377,280.076,104.551,277.175,104.551z M273.405,75.988l2.697,0.583c-0.368,0.816-0.746,1.583-1.134,2.298h9.96v2.329
		h-1.869c-0.756,2.289-1.809,4.097-3.156,5.425c-0.042,0.041-0.072,0.071-0.093,0.092c1.594,1.001,3.545,1.859,5.854,2.574
		l-1.777,2.636c-2.738-1.021-4.883-2.094-6.436-3.218c-1.594,1.063-3.729,2.217-6.405,3.463l-1.44-2.788
		c2.309-0.777,4.209-1.635,5.7-2.575c-1.124-1.144-2.095-2.4-2.911-3.77c-0.756,1.083-1.522,2.003-2.299,2.759l-1.961-2.36
		C270.464,81.208,272.221,78.726,273.405,75.988z M274.601,81.198c0.858,1.533,1.87,2.83,3.034,3.893
		c1.104-1.042,1.992-2.34,2.666-3.893H274.601z"/>
	<path fill="#FFFFFF" d="M292.561,75.866l2.544,0.889c-0.961,2.982-2.023,5.619-3.188,7.906c0.837-0.122,1.654-0.234,2.451-0.337
		c0.694-1.43,1.38-2.982,2.054-4.658l2.605,1.011c-2.146,4.885-4.342,8.857-6.59,11.922c1.39-0.143,2.585-0.326,3.586-0.551
		c-0.164-0.961-0.348-1.9-0.552-2.82l2.268-0.705c0.491,1.84,0.92,3.943,1.288,6.314l-2.514,0.643
		c-0.062-0.367-0.112-0.715-0.153-1.041c-1.921,0.449-4.525,0.797-7.814,1.041l-0.797-2.696c0.653,0,1.246-0.011,1.777-0.03
		c1.185-1.614,2.38-3.576,3.586-5.885c-1.532,0.266-3.198,0.521-4.996,0.766l-0.612-2.574c0.51-0.041,1.021-0.081,1.532-0.122
		C290.364,82.24,291.538,79.216,292.561,75.866z M288.76,96.583l2.299,0.307c-0.144,3.023-0.409,5.578-0.797,7.662l-2.636-0.828
		C288.198,101.497,288.576,99.116,288.76,96.583z M294.154,96.459c0.408,1.676,0.684,3.943,0.827,6.805l-2.513,0.307
		c-0.062-2.943-0.205-5.23-0.43-6.865L294.154,96.459z M297.341,95.969c0.675,2.207,1.195,4.209,1.563,6.008l-2.329,0.857
		c-0.327-2.145-0.735-4.249-1.226-6.313L297.341,95.969z M309.6,104.551l-0.644-2.82l3.249,0.123
		c0.613-0.041,0.919-0.46,0.919-1.256v-7.142h-6.681v3.341c0,0.633,0.348,0.949,1.042,0.949h4.413v2.33h-5.026
		c-0.939,0-1.675-0.184-2.206-0.552s-0.797-0.981-0.797-1.839v-4.229h-1.9v11.095h-2.696V77.153h16.549v24.271
		c0,1.063-0.245,1.859-0.735,2.391c-0.409,0.49-1.012,0.736-1.809,0.736H309.6z M301.969,85.059h2.237
		c-0.429-1.45-0.93-2.789-1.502-4.014l2.636-0.369c0.511,1.287,0.981,2.749,1.41,4.383h1.594c0.49-1.389,0.848-2.85,1.072-4.383
		l2.605,0.338c-0.266,1.451-0.644,2.799-1.134,4.045h2.236v-5.577h-11.155V85.059z M301.969,91.127h4.168v-3.616h-4.168V91.127z
		 M308.834,87.511v3.616h4.29v-3.616H308.834z"/>
</g>
<g>
	<path fill="#FFFFFF" d="M46.223,135.487v-18.615h12.762v3.148h-9.003v4.406h7.771v3.15h-7.771v7.91H46.223z"/>
	<path fill="#FFFFFF" d="M73.994,128.643l3.645,1.155c-0.559,2.032-1.488,3.541-2.787,4.526c-1.3,0.986-2.948,1.48-4.946,1.48
		c-2.473,0-4.504-0.845-6.096-2.533c-1.592-1.689-2.388-3.998-2.388-6.928c0-3.099,0.801-5.505,2.4-7.219
		c1.6-1.715,3.704-2.572,6.312-2.572c2.277,0,4.127,0.674,5.549,2.02c0.847,0.795,1.481,1.938,1.905,3.428l-3.721,0.89
		c-0.221-0.966-0.68-1.728-1.378-2.286s-1.547-0.838-2.546-0.838c-1.38,0-2.5,0.496-3.359,1.486s-1.289,2.594-1.289,4.813
		c0,2.354,0.424,4.029,1.271,5.029c0.847,0.998,1.947,1.498,3.302,1.498c0.999,0,1.857-0.318,2.577-0.953
		S73.681,130.006,73.994,128.643z"/>
	<path fill="#FFFFFF" d="M80.84,116.872h3.759v10.082c0,1.6,0.046,2.637,0.14,3.111c0.16,0.762,0.544,1.373,1.148,1.835
		c0.605,0.462,1.434,0.692,2.483,0.692c1.066,0,1.87-0.219,2.412-0.654s0.868-0.972,0.979-1.606
		c0.109-0.635,0.165-1.688,0.165-3.162v-10.298h3.759v9.777c0,2.234-0.102,3.814-0.305,4.736c-0.203,0.924-0.578,1.702-1.124,2.337
		s-1.276,1.142-2.19,1.518c-0.915,0.376-2.108,0.565-3.581,0.565c-1.778,0-3.126-0.205-4.045-0.616s-1.645-0.944-2.178-1.601
		c-0.533-0.655-0.885-1.344-1.054-2.063c-0.246-1.067-0.368-2.643-0.368-4.725V116.872z"/>
	<path fill="#FFFFFF" d="M106.91,135.487v-18.615h3.657l7.619,12.432v-12.432h3.492v18.615h-3.771l-7.505-12.14v12.14H106.91z"/>
	<path fill="#FFFFFF" d="M133.438,131.196l3.556,0.596c-0.457,1.305-1.18,2.297-2.165,2.979c-0.986,0.682-2.221,1.021-3.702,1.021
		c-2.345,0-4.081-0.766-5.206-2.298c-0.89-1.228-1.334-2.776-1.334-4.647c0-2.235,0.584-3.985,1.753-5.252
		c1.168-1.265,2.646-1.898,4.432-1.898c2.007,0,3.589,0.663,4.749,1.988c1.16,1.324,1.715,3.354,1.664,6.089h-8.94
		c0.025,1.058,0.313,1.882,0.863,2.47c0.551,0.588,1.236,0.883,2.058,0.883c0.559,0,1.028-0.152,1.409-0.457
		C132.955,132.364,133.242,131.873,133.438,131.196z M133.641,127.588c-0.025-1.033-0.292-1.817-0.8-2.355
		c-0.509-0.537-1.127-0.807-1.854-0.807c-0.779,0-1.422,0.284-1.931,0.852c-0.508,0.566-0.757,1.338-0.749,2.311H133.641z"/>
	<path fill="#FFFFFF" d="M146.275,122v2.846h-2.438v5.435c0,1.101,0.022,1.742,0.069,1.924c0.047,0.183,0.152,0.333,0.317,0.45
		c0.165,0.119,0.366,0.179,0.604,0.179c0.33,0,0.809-0.114,1.435-0.343l0.305,2.768c-0.829,0.355-1.77,0.533-2.818,0.533
		c-0.644,0-1.224-0.107-1.74-0.323s-0.896-0.495-1.137-0.838s-0.408-0.807-0.501-1.391c-0.076-0.415-0.114-1.253-0.114-2.515v-5.879
		h-1.639V122h1.639v-2.679l3.581-2.083V122H146.275z"/>
	<path fill="#FFFFFF" d="M151.267,135.487L147,122h3.467l2.527,8.839l2.323-8.839h3.441l2.248,8.839l2.578-8.839h3.518
		l-4.331,13.486h-3.429l-2.323-8.673l-2.286,8.673H151.267z"/>
	<path fill="#FFFFFF" d="M168.155,128.553c0-1.185,0.292-2.332,0.877-3.441c0.584-1.108,1.411-1.955,2.482-2.539
		c1.07-0.584,2.267-0.877,3.587-0.877c2.04,0,3.713,0.663,5.017,1.988c1.304,1.324,1.955,2.999,1.955,5.021
		c0,2.041-0.658,3.732-1.975,5.074s-2.974,2.012-4.972,2.012c-1.236,0-2.415-0.279-3.536-0.838
		c-1.122-0.559-1.975-1.377-2.559-2.457C168.447,131.417,168.155,130.103,168.155,128.553z M171.813,128.745
		c0,1.338,0.317,2.361,0.953,3.072c0.635,0.711,1.418,1.067,2.349,1.067c0.932,0,1.712-0.356,2.343-1.067s0.946-1.744,0.946-3.098
		c0-1.321-0.315-2.337-0.946-3.048c-0.631-0.712-1.411-1.067-2.343-1.067c-0.931,0-1.714,0.355-2.349,1.067
		C172.13,126.382,171.813,127.407,171.813,128.745z"/>
	<path fill="#FFFFFF" d="M188.283,135.487h-3.568V122h3.314v1.918c0.567-0.905,1.077-1.502,1.53-1.79s0.968-0.433,1.543-0.433
		c0.813,0,1.596,0.225,2.35,0.674l-1.104,3.111c-0.602-0.39-1.16-0.584-1.677-0.584c-0.499,0-0.923,0.137-1.27,0.412
		c-0.348,0.275-0.62,0.773-0.819,1.492c-0.199,0.72-0.299,2.227-0.299,4.521V135.487z"/>
	<path fill="#FFFFFF" d="M194.86,135.487v-18.615h3.568v9.879l4.179-4.75h4.394l-4.609,4.928l4.939,8.559h-3.848l-3.391-6.057
		l-1.664,1.74v4.316H194.86z"/>
	<path fill="#FFFFFF" d="M216.588,135.487v-18.615h3.76v18.615H216.588z"/>
	<path fill="#FFFFFF" d="M223.916,116.872h6.869c1.55,0,2.73,0.118,3.543,0.355c1.093,0.321,2.028,0.893,2.807,1.714
		c0.779,0.821,1.372,1.827,1.778,3.016c0.406,1.19,0.609,2.656,0.609,4.4c0,1.532-0.19,2.853-0.571,3.962
		c-0.466,1.354-1.131,2.451-1.994,3.289c-0.651,0.635-1.532,1.131-2.642,1.486c-0.829,0.262-1.938,0.393-3.327,0.393h-7.072V116.872
		z M227.675,120.02v12.33h2.806c1.05,0,1.808-0.059,2.273-0.178c0.609-0.152,1.115-0.41,1.518-0.773
		c0.402-0.365,0.73-0.963,0.984-1.797s0.381-1.971,0.381-3.41s-0.127-2.544-0.381-3.314s-0.609-1.371-1.067-1.803
		c-0.457-0.432-1.037-0.725-1.739-0.877c-0.525-0.118-1.554-0.178-3.086-0.178H227.675z"/>
	<path fill="#FFFFFF" d="M248.983,129.43l3.657-0.355c0.221,1.228,0.667,2.129,1.34,2.705c0.673,0.575,1.581,0.863,2.724,0.863
		c1.211,0,2.123-0.256,2.737-0.769c0.613-0.513,0.92-1.111,0.92-1.797c0-0.44-0.129-0.815-0.387-1.124
		c-0.259-0.309-0.709-0.578-1.353-0.807c-0.44-0.152-1.443-0.423-3.01-0.813c-2.015-0.499-3.429-1.113-4.241-1.842
		c-1.143-1.023-1.715-2.272-1.715-3.746c0-0.947,0.27-1.834,0.807-2.66c0.538-0.825,1.313-1.453,2.324-1.885
		s2.232-0.648,3.663-0.648c2.337,0,4.096,0.513,5.276,1.537c1.182,1.023,1.802,2.392,1.86,4.102l-3.759,0.165
		c-0.16-0.956-0.506-1.645-1.035-2.063c-0.528-0.42-1.322-0.629-2.381-0.629c-1.092,0-1.947,0.225-2.564,0.674
		c-0.398,0.287-0.598,0.672-0.598,1.154c0,0.441,0.187,0.818,0.56,1.131c0.474,0.398,1.625,0.813,3.454,1.244
		c1.828,0.432,3.181,0.879,4.057,1.34s1.563,1.092,2.058,1.893c0.495,0.8,0.742,1.788,0.742,2.965c0,1.066-0.296,2.066-0.889,2.997
		s-1.431,1.623-2.514,2.076c-1.084,0.452-2.435,0.679-4.052,0.679c-2.354,0-4.16-0.543-5.422-1.631S249.229,131.512,248.983,129.43z
		"/>
	<path fill="#FFFFFF" d="M275.067,131.196l3.556,0.596c-0.457,1.305-1.18,2.297-2.165,2.979c-0.986,0.682-2.221,1.021-3.702,1.021
		c-2.345,0-4.081-0.766-5.206-2.298c-0.89-1.228-1.334-2.776-1.334-4.647c0-2.235,0.584-3.985,1.753-5.252
		c1.168-1.265,2.646-1.898,4.432-1.898c2.007,0,3.589,0.663,4.749,1.988c1.16,1.324,1.715,3.354,1.664,6.089h-8.94
		c0.025,1.058,0.313,1.882,0.863,2.47c0.551,0.588,1.236,0.883,2.058,0.883c0.559,0,1.028-0.152,1.409-0.457
		C274.585,132.364,274.872,131.873,275.067,131.196z M275.271,127.588c-0.025-1.033-0.292-1.817-0.8-2.355
		c-0.509-0.537-1.127-0.807-1.854-0.807c-0.779,0-1.422,0.284-1.931,0.852c-0.508,0.566-0.757,1.338-0.749,2.311H275.271z"/>
	<path fill="#FFFFFF" d="M285.137,135.487h-3.568V122h3.314v1.918c0.567-0.905,1.077-1.502,1.53-1.79s0.968-0.433,1.543-0.433
		c0.813,0,1.596,0.225,2.35,0.674l-1.104,3.111c-0.602-0.39-1.16-0.584-1.677-0.584c-0.499,0-0.923,0.137-1.27,0.412
		c-0.348,0.275-0.62,0.773-0.819,1.492c-0.199,0.72-0.299,2.227-0.299,4.521V135.487z"/>
	<path fill="#FFFFFF" d="M295.55,135.487L290.114,122h3.746l2.54,6.883l0.736,2.299c0.194-0.584,0.317-0.969,0.368-1.155
		c0.118-0.381,0.245-0.762,0.381-1.144l2.565-6.883h3.67l-5.359,13.486H295.55z"/>
	<path fill="#FFFFFF" d="M306.306,120.172v-3.301h3.568v3.301H306.306z M306.306,135.487V122h3.568v13.486H306.306z"/>
	<path fill="#FFFFFF" d="M325.29,125.989l-3.518,0.635c-0.119-0.703-0.388-1.232-0.807-1.588s-0.963-0.533-1.632-0.533
		c-0.889,0-1.598,0.308-2.127,0.921c-0.529,0.614-0.794,1.641-0.794,3.079c0,1.601,0.269,2.73,0.807,3.391
		c0.537,0.66,1.259,0.991,2.165,0.991c0.678,0,1.231-0.192,1.664-0.578c0.432-0.386,0.736-1.048,0.914-1.987l3.505,0.597
		c-0.364,1.608-1.063,2.823-2.096,3.645c-1.032,0.821-2.417,1.231-4.152,1.231c-1.973,0-3.545-0.621-4.718-1.866
		s-1.759-2.968-1.759-5.169c0-2.227,0.589-3.959,1.766-5.199s2.769-1.861,4.774-1.861c1.643,0,2.948,0.354,3.918,1.061
		C324.17,123.463,324.866,124.542,325.29,125.989z"/>
	<path fill="#FFFFFF" d="M335.805,131.196l3.556,0.596c-0.457,1.305-1.18,2.297-2.165,2.979c-0.986,0.682-2.221,1.021-3.702,1.021
		c-2.345,0-4.081-0.766-5.206-2.298c-0.89-1.228-1.334-2.776-1.334-4.647c0-2.235,0.584-3.985,1.753-5.252
		c1.168-1.265,2.646-1.898,4.432-1.898c2.007,0,3.589,0.663,4.749,1.988c1.16,1.324,1.715,3.354,1.664,6.089h-8.94
		c0.025,1.058,0.313,1.882,0.863,2.47c0.551,0.588,1.236,0.883,2.058,0.883c0.559,0,1.028-0.152,1.409-0.457
		C335.322,132.364,335.609,131.873,335.805,131.196z M336.008,127.588c-0.025-1.033-0.292-1.817-0.8-2.355
		c-0.509-0.537-1.127-0.807-1.854-0.807c-0.779,0-1.422,0.284-1.931,0.852c-0.508,0.566-0.757,1.338-0.749,2.311H336.008z"/>
</g>
</svg>
